<?xml version="1.0" ?><!DOCTYPE svg PUBLIC '-//W3C//DTD SVG 1.1//EN' 'http://www.w3.org/Graphics/SVG/1.1/DTD/svg11.dtd'>
<svg version="1.1" viewBox="0 0 512 512" xml:space="preserve"
    xmlns="http://www.w3.org/2000/svg"
    xmlns:xlink="http://www.w3.org/1999/xlink">
    <g>
        <path d="M276,31v45.36c-5.88-3.4-12.71-5.36-20-5.36s-14.12,1.96-20,5.36V31H276z" fill="#57606F"/>
        <path d="M243.25,38.583H276V31h-40v45.36c2.282-1.319,4.71-2.415,7.25-3.27V38.583z" fill="#414A56"/>
        <path d="M236,76.36c5.88-3.4,12.71-5.36,20-5.36s14.12,1.96,20,5.36c11.95,6.92,20,19.84,20,34.64 c0,11.95-5.25,22.67-13.56,30h-52.88c-8.31-7.33-13.56-18.05-13.56-30C216,96.2,224.05,83.28,236,76.36z" fill="#A28671"/>
        <path d="M221.75,118.875c0-14.8,8.05-27.72,20-34.64c5.88-3.4,12.71-5.36,20-5.36s14.12,1.96,20,5.36 c3.422,1.982,6.51,4.469,9.195,7.338c-3.522-6.317-8.691-11.592-14.945-15.213c-5.88-3.4-12.71-5.36-20-5.36s-14.12,1.96-20,5.36 c-11.95,6.92-20,19.84-20,34.64c0,10.571,4.113,20.174,10.813,27.325C223.596,132.566,221.75,125.939,221.75,118.875z" fill="#8E725D"/>
        <polygon points="286,141 286,171 256,171 226,171 226,141 229.56,141 282.44,141" fill="#57606F"/>
        <polygon points="233.875,149 237.435,149 286,149 286,141 282.44,141 229.56,141 226,141 226,171 233.875,171" fill="#414A56"/>
        <polygon points="296,171 356,361 336,411 256,171 286,171" fill="#A28671"/>
        <polygon points="267.5,179.375 297.5,179.375 298.645,179.375 296,171 286,171 256,171 336,411 340.75,399.125" fill="#8E725D"/>
        <polygon points="256,171 176,411 156,361 216,171 226,171" fill="#A28671"/>
        <polygon points="162,369.875 222,179.875 232,179.875 253.042,179.875 256,171 226,171 216,171 156,361 176,411 177.114,407.659" fill="#8E725D"/>
        <rect height="20" width="20" x="286" y="421"/>
        <rect height="20" width="20" x="286" y="391"/>
        <path d="M256,101c5.52,0,10,4.48,10,10s-4.48,10-10,10c-5.52,0-10-4.48-10-10S250.48,101,256,101z"/>
        <rect height="20" width="20" x="206" y="421"/>
        <rect height="20" width="20" x="206" y="391"/>
        <path d="M175.999,416c-2.039,0-3.88-1.24-4.642-3.143l-20-50c-0.429-1.073-0.473-2.262-0.125-3.363l60-190 c0.657-2.08,2.586-3.494,4.768-3.494h10c2.761,0,5,2.239,5,5s-2.239,5-5,5h-6.335l-58.358,184.802l14.267,35.668l75.683-227.051 c0.874-2.62,3.705-4.035,6.325-3.163c2.62,0.874,4.035,3.705,3.162,6.325l-80,240c-0.664,1.99-2.5,3.355-4.597,3.417 C176.098,415.999,176.048,416,175.999,416z"/>
        <path d="M336.001,416c-0.049,0-0.099-0.001-0.147-0.002c-2.098-0.062-3.934-1.427-4.597-3.417l-80-240 c-0.873-2.62,0.543-5.451,3.163-6.325c2.621-0.872,5.452,0.543,6.324,3.163l75.684,227.051l14.268-35.668L292.336,176H286 c-2.762,0-5-2.239-5-5s2.238-5,5-5h10c2.182,0,4.111,1.414,4.768,3.494l60,190c0.349,1.102,0.304,2.29-0.125,3.363l-20,50 C339.882,414.759,338.04,416,336.001,416z"/>
        <path d="M276,81.36c-2.762,0-5-2.239-5-5V36h-30v40.36c0,2.761-2.239,5-5,5s-5-2.239-5-5V31c0-2.761,2.239-5,5-5h40 c2.762,0,5,2.239,5,5v45.36C281,79.121,278.762,81.36,276,81.36z"/>
        <path d="M229.558,146c-1.175,0-2.355-0.412-3.306-1.25C216.56,136.2,211,123.898,211,111c0-16.001,8.619-30.933,22.495-38.967 C240.321,68.085,248.103,66,256,66s15.679,2.085,22.503,6.031C292.381,80.067,301,94.999,301,111 c0,12.898-5.56,25.199-15.252,33.75c-2.07,1.827-5.23,1.63-7.058-0.442c-1.826-2.071-1.629-5.23,0.442-7.057 C286.675,130.598,291,121.03,291,111c0-12.445-6.708-24.061-17.506-30.313C268.192,77.621,262.143,76,256,76 s-12.193,1.621-17.497,4.688C227.708,86.939,221,98.555,221,111c0,10.03,4.326,19.598,11.868,26.25 c2.071,1.827,2.269,4.986,0.442,7.057C232.322,145.428,230.943,146,229.558,146z"/>
        <path d="M286,176h-60c-2.761,0-5-2.239-5-5v-30c0-2.761,2.239-5,5-5h60c2.762,0,5,2.239,5,5v30C291,173.761,288.762,176,286,176z M231,166h50v-20h-50V166z"/>
        <path d="M306,346H206c-2.761,0-5-2.238-5-5s2.239-5,5-5h100c2.762,0,5,2.238,5,5S308.762,346,306,346z"/>
        <path d="M256,486c-2.761,0-5-2.238-5-5V321c0-2.762,2.239-5,5-5c2.762,0,5,2.238,5,5v160C261,483.762,258.762,486,256,486z"/>
        <path d="M446,226H346c-2.762,0-5-2.239-5-5s2.238-5,5-5h100c2.762,0,5,2.239,5,5S448.762,226,446,226z"/>
        <path d="M166,226H66c-2.761,0-5-2.239-5-5s2.239-5,5-5h100c2.761,0,5,2.239,5,5S168.761,226,166,226z"/>
        <path d="M486,256H386c-2.762,0-5-2.239-5-5s2.238-5,5-5h100c2.762,0,5,2.239,5,5S488.762,256,486,256z"/>
        <path d="M126,256H26c-2.761,0-5-2.239-5-5s2.239-5,5-5h100c2.761,0,5,2.239,5,5S128.761,256,126,256z"/>
        <path d="M396,486H126c-2.761,0-5-2.238-5-5s2.239-5,5-5h270c2.762,0,5,2.238,5,5S398.762,486,396,486z"/>
        <path d="M186,116H36c-2.761,0-5-2.239-5-5V51c0-2.761,2.239-5,5-5h150c2.761,0,5,2.239,5,5s-2.239,5-5,5H41v50h145 c2.761,0,5,2.239,5,5S188.761,116,186,116z"/>
        <path d="M156,116c-2.761,0-5-2.239-5-5V81c0-2.761,2.239-5,5-5s5,2.239,5,5v30C161,113.761,158.761,116,156,116z"/>
        <path d="M126,116c-2.761,0-5-2.239-5-5V81c0-2.761,2.239-5,5-5s5,2.239,5,5v30C131,113.761,128.761,116,126,116z"/>
        <path d="M96,116c-2.761,0-5-2.239-5-5V81c0-2.761,2.239-5,5-5s5,2.239,5,5v30C101,113.761,98.761,116,96,116z"/>
        <path d="M66,116c-2.761,0-5-2.239-5-5V81c0-2.761,2.239-5,5-5s5,2.239,5,5v30C71,113.761,68.761,116,66,116z"/>
        <path d="M476,116H326c-2.762,0-5-2.239-5-5s2.238-5,5-5h145V56H326c-2.762,0-5-2.239-5-5s2.238-5,5-5h150c2.762,0,5,2.239,5,5v60 C481,113.761,478.762,116,476,116z"/>
        <path d="M356,116c-2.762,0-5-2.239-5-5V81c0-2.761,2.238-5,5-5s5,2.239,5,5v30C361,113.761,358.762,116,356,116z"/>
        <path d="M386,116c-2.762,0-5-2.239-5-5V81c0-2.761,2.238-5,5-5s5,2.239,5,5v30C391,113.761,388.762,116,386,116z"/>
        <path d="M416,116c-2.762,0-5-2.239-5-5V81c0-2.761,2.238-5,5-5s5,2.239,5,5v30C421,113.761,418.762,116,416,116z"/>
        <path d="M446,116c-2.762,0-5-2.239-5-5V81c0-2.761,2.238-5,5-5s5,2.239,5,5v30C451,113.761,448.762,116,446,116z"/>
    </g>
</svg>