<svg xmlns="http://www.w3.org/2000/svg" viewBox="0 0 24 24">
   <path d="M 5 3 C 3.9 3 3 3.9 3 5 L 3 19 C 3 20.1 3.9 21 5 21 L 19 21 C 19.2 21 19.4 21.00625 19.5 20.90625 L 16.90625 18.3125 C 16.60625 18.4125 16.3 18.5 16 18.5 C 14.6 18.5 13.5 17.4 13.5 16 C 13.5 14.6 14.6 13.5 16 13.5 C 17.4 13.5 18.5 14.6 18.5 16 C 18.5 16.3 18.4125 16.60625 18.3125 16.90625 L 20.90625 19.5 C 20.90625 19.3 21 19.2 21 19 L 21 5 C 21 3.9 20.1 3 19 3 L 14.40625 3 L 10.3125 7.09375 C 10.4125 7.39375 10.5 7.7 10.5 8 C 10.5 9.4 9.4 10.5 8 10.5 C 6.6 10.5 5.5 9.4 5.5 8 C 5.5 6.6 6.6 5.5 8 5.5 C 8.3 5.5 8.60625 5.5875 8.90625 5.6875 L 11.59375 3 L 5 3 z M 16 5.5 C 17.4 5.5 18.5 6.6 18.5 8 C 18.5 9.4 17.4 10.5 16 10.5 C 15.7 10.5 15.39375 10.4125 15.09375 10.3125 L 10.3125 15.09375 C 10.4125 15.39375 10.5 15.7 10.5 16 C 10.5 17.4 9.4 18.5 8 18.5 C 6.6 18.5 5.5 17.4 5.5 16 C 5.5 14.6 6.6 13.5 8 13.5 C 8.3 13.5 8.60625 13.5875 8.90625 13.6875 L 13.6875 8.90625 C 13.5875 8.60625 13.5 8.3 13.5 8 C 13.5 6.6 14.6 5.5 16 5.5 z M 8 7 C 7.4477153 7 7 7.4477153 7 8 C 7 8.5522847 7.4477153 9 8 9 C 8.5522847 9 9 8.5522847 9 8 C 9 7.4477153 8.5522847 7 8 7 z M 16 7 C 15.447715 7 15 7.4477153 15 8 C 15 8.5522847 15.447715 9 16 9 C 16.552285 9 17 8.5522847 17 8 C 17 7.4477153 16.552285 7 16 7 z M 8 15 C 7.4477153 15 7 15.447715 7 16 C 7 16.552285 7.4477153 17 8 17 C 8.5522847 17 9 16.552285 9 16 C 9 15.447715 8.5522847 15 8 15 z M 16 15 C 15.447715 15 15 15.447715 15 16 C 15 16.552285 15.447715 17 16 17 C 16.552285 17 17 16.552285 17 16 C 17 15.447715 16.552285 15 16 15 z" />
</svg>