<!-- Svg Vector Icons : http://www.onlinewebfonts.com/icon -->
<svg xmlns="http://www.w3.org/2000/svg" xmlns:xlink="http://www.w3.org/1999/xlink" version="1.1" x="0px" y="0px" viewBox="0 0 1000 1000">
   <g transform="translate(0.000000,512.000000) scale(0.100000,-0.100000)">
      <path d="M4702.9,5001.2c-333.5-67.1-548.2-195.5-634.4-385.2c-44.1-92-46-115-46-557.8v-463.8l-157.2-23c-601.8-84.3-1186.4-258.8-1646.4-486.8c-513.7-256.8-856.7-565.4-1031.2-925.7c-107.3-224.2-107.3-210.8-107.3-1663.7c0-1265,1.9-1347.4,36.4-1447.1c141.8-414,408.3-703.4,939.2-1025.4c28.8-17.2-1.9-76.7-228.1-454.3c-251.1-421.7-262.6-438.9-356.5-484.9c-419.7-214.7-519.4-695.7-210.8-1031.2c220.4-237.7,640.2-314.3,946.8-170.6c312.4,145.7,494.5,465.7,419.8,737.9c-19.2,70.9-15.3,78.6,247.2,521.3c184,306.7,277.9,450.4,300.9,450.4c17.3,0,80.5-13.4,138-28.8c153.3-42.2,607.6-118.8,866.3-145.7l226.2-23l3.8-509.8l5.7-509.8l-53.7-70.9c-97.8-128.4-136.1-241.5-136.1-398.7c-1.9-126.5,7.7-162.9,61.3-272.2c270.2-550.1,1155.7-550.1,1426,0c107.3,218.5,82.4,463.8-69,661.2l-49.8,65.2v517.5v515.6l293.2,34.5c161,17.3,423.6,59.4,580.7,92c157.2,30.7,308.6,61.3,335.4,67.1c47.9,9.6,65.2-13.4,320.1-442.8c264.5-444.7,268.3-452.3,249.2-523.3c-74.7-272.2,107.4-592.2,419.8-737.9c306.7-143.8,726.4-67.1,946.8,170.6c308.6,335.4,208.9,816.5-210.8,1031.2c-93.9,46-105.4,63.3-356.5,484.9c-226.2,377.6-256.8,437-228.1,454.3c523.3,316.2,795.4,609.5,931.5,1000.5l44.1,130.3V495.1c0,1452.8,0,1439.4-107.3,1663.7C8515.2,2776,7692.9,3259,6523.7,3502.4c-126.5,24.9-300.9,57.5-387.2,69l-159.1,23v463.8c0,442.8-1.9,465.8-46,557.8c-74.7,164.8-264.5,291.3-538.6,364.2C5231.9,5022.3,4869.7,5033.8,4702.9,5001.2z M5289.4,4600.6c143.8-34.5,276-109.3,276-157.2c0-47.9-103.5-116.9-237.7-159.1c-74.7-21.1-174.4-32.6-327.7-32.6c-153.3,0-253,11.5-327.7,32.6c-134.2,42.2-237.7,111.2-237.7,159.1c0,46,130.3,122.7,268.3,155.2C4831.3,4629.4,5157.2,4631.3,5289.4,4600.6z M4597.5,3901c78.6-23,180.2-32.6,402.5-32.6c222.3,0,323.9,9.6,402.5,32.6c57.5,17.3,124.6,38.3,149.5,46l42.2,11.5V2825.8c0-1096.3-1.9-1134.7-36.4-1169.2c-95.8-95.8-310.5-155.2-557.7-155.2c-247.2,0-461.9,59.4-557.7,155.2c-34.5,34.5-36.4,72.8-36.4,1169.2v1132.7l44.1-11.5C4472.9,3939.4,4540,3918.3,4597.5,3901z M4026.3,2377.3l5.7-812.7l57.5-93.9c38.3-59.4,99.7-120.7,172.5-170.6c479.2-322,1404.9-226.2,1648.3,170.6l57.5,93.9l5.8,814.6l5.7,814.6l109.3-13.4c343.1-40.3,912.3-189.7,1255.4-329.7c977.5-398.7,1385.7-973.7,1081-1519.9C8037.9,637,6579.3,121.4,5000,121.4c-1381.9,0-2696.7,394.8-3244.9,975.6c-212.7,226.2-293.3,417.8-277.9,649.7c42.2,575,881.7,1127,2085.3,1370.4c299,61.3,320.1,65.2,396.8,69l61.3,1.9L4026.3,2377.3z M1820.3,531.6c527.1-364.2,1293.7-621,2240.6-749.4c373.7-49.8,1504.6-49.8,1878.3,0c1104,149.5,1985.7,483,2485.9,941.1l101.6,92V21.7c0-891.2-1.9-900.8-143.8-1115.5c-113.1-172.5-389.1-410.2-601.8-517.5c-53.7-28.8-69-30.7-88.2-7.7c-13.4,13.4-109.3,172.5-216.6,350.7c-105.4,180.2-216.6,348.8-247.3,377.6c-28.7,28.7-103.5,74.8-166.7,103.5c-97.7,44.1-130.3,49.8-249.2,42.1c-166.7-11.5-260.7-57.5-373.8-178.2c-113.1-122.7-143.8-201.3-143.8-373.8c0-161,5.8-174.4,212.8-525.2c67.1-115,116.9-214.7,107.3-224.3c-30.7-30.7-540.5-113.1-967.9-159.1l-53.7-5.8v396.8c0,448.5-19.2,565.4-120.8,707.2c-228.1,320.1-699.6,327.8-935.3,13.4c-111.2-145.7-118.8-187.9-126.5-674.7l-9.6-440.8l-49.8,3.9c-433.2,46-935.3,128.4-967.9,159.1c-9.6,9.6,40.2,109.3,107.3,224.3c207,350.7,212.8,364.2,212.8,525.2c0,172.5-30.7,251.1-143.8,373.8c-113.1,120.7-207,166.7-373.8,178.2c-118.8,7.7-151.4,1.9-249.2-42.1c-63.2-28.8-138-74.8-166.7-103.5c-30.7-28.8-141.8-197.4-247.3-377.6c-107.3-178.2-203.2-337.3-216.6-350.7c-19.2-23-34.5-21.1-88.2,7.7c-214.7,109.2-488.7,345-605.7,521.3c-138,210.8-139.9,220.4-139.9,1111.7v793.5l101.6-92C1630.5,671.5,1741.7,585.2,1820.3,531.6z M3209.8-1143.6c28.8-11.5,63.2-34.5,76.7-53.7c65.2-84.3,42.2-132.3-437-939.2c-253-429.3-471.5-791.6-484.9-805c-19.2-21.1-34.5-19.2-88.2,13.4c-36.4,19.2-101.6,47.9-145.7,61.3c-46,13.4-82.4,28.8-82.4,34.5c1.9,5.8,224.3,381.4,494.5,835.7c461.9,770.5,530.9,870.2,601.8,872.1C3152.3-1124.5,3181.1-1134,3209.8-1143.6z M6956.9-1178.1c28.8-28.8,994.8-1640.7,994.8-1657.9c0-3.8-36.4-17.3-80.5-30.7c-46-13.4-111.2-42.1-147.6-61.3c-53.7-32.6-69-34.5-88.2-13.4c-13.4,13.4-231.9,375.7-484.9,805c-479.2,806.9-502.2,854.8-437,939.2C6769.1-1122.5,6893.7-1112.9,6956.9-1178.1z M5136.1-1314.2l55.6-55.6v-1025.4v-1023.5H5000h-191.7v1023.5v1025.4l55.6,55.6c44.1,44.1,72.8,55.6,136.1,55.6C5063.2-1258.6,5092-1270.1,5136.1-1314.2z M2096.3-3278.8c84.3-49.8,136.1-118.8,143.8-193.6c11.5-95.8-3.8-134.2-80.5-210.8c-132.2-132.3-352.7-157.2-525.2-59.4c-109.2,61.3-166.7,155.2-155.3,256.8C1504-3255.8,1856.7-3138.8,2096.3-3278.8z M8346.5-3267.3c111.2-57.5,164.8-122.7,174.4-218.5c23-205.1-228.1-358.4-494.5-300.9c-80.5,17.3-120.8,40.3-184,103.5c-78.6,76.7-93.9,115-82.4,210.8c11.5,101.6,107.3,197.4,245.3,241.5C8085.8-3205.9,8262.2-3223.2,8346.5-3267.3z M5208.9-3857.6c320.1-161,174.4-525.2-208.9-525.2c-383.3,0-529,364.2-208.9,525.2C4929.1-3788.6,5070.9-3788.6,5208.9-3857.6z" />
   </g>
</svg>