<svg xmlns="http://www.w3.org/2000/svg" viewBox="0 0 24 24">
   <path d="M 12 2.09375 C 10.895431 2.09375 10 2.5029437 10 3 L 10 8 C 10 8.4970563 10.895431 8.90625 12 8.90625 C 13.104569 8.90625 14 8.4970563 14 8 L 14 3 C 14 2.5029437 13.104569 2.09375 12 2.09375 z M 9 3.3125 C 5.4 3.9125 3 5.7 3 8 L 3 15 C 3 16.206731 3.7219264 17.281282 4.9375 18.125 L 4.03125 19.59375 L 5.75 20.625 L 8.71875 15.71875 L 8.84375 15.53125 C 8.9421003 15.376437 9 15.196993 9 15 C 9 14.447715 8.5522847 14 8 14 C 7.6499852 14 7.3661672 14.196448 7.1875 14.46875 C 7.1848065 14.472855 7.1588844 14.464603 7.15625 14.46875 L 5.96875 16.4375 C 5.351755 15.981934 5 15.48983 5 15 L 5 11.25 C 6.628833 12.347534 9.13125 13 12 13 C 14.86875 13 17.371167 12.347534 19 11.25 L 19 15 C 19 15.2 18.9125 15.39375 18.8125 15.59375 L 20 17.40625 C 20.7 16.70625 21 15.9 21 15 L 21 8 C 21 5.7 18.6 3.9125 15 3.3125 L 15 5.40625 C 17.4 5.90625 19 7 19 8 C 19 9.4 16 11 12 11 C 8 11 5 9.4 5 8 C 5 7 6.6 5.9125 9 5.3125 L 9 3.3125 z M 16 14 C 15.447715 14 15 14.447715 15 15 C 15 15.196993 15.0579 15.376437 15.15625 15.53125 L 16.25 17.3125 C 15.58194 17.551852 14.831834 17.778275 14 17.90625 L 14 19.90625 C 15.23674 19.760751 16.364464 19.48945 17.3125 19.09375 L 18.25 20.625 L 19.96875 19.59375 L 16.84375 14.46875 L 16.8125 14.46875 C 16.633833 14.196448 16.350015 14 16 14 z M 12 15 C 11.447715 15 11 15.447715 11 16 L 11 17.96875 C 10.216118 17.921806 9.5242647 17.807279 8.8125 17.59375 L 7.6875 19.40625 C 8.7063869 19.719754 9.8101128 19.900958 11 19.96875 L 11 22 L 13 22 L 13 16 C 13 15.447715 12.552285 15 12 15 z" />
</svg>