<?xml version="1.0" encoding="UTF-8"?><svg id="a" xmlns="http://www.w3.org/2000/svg" viewBox="0 0 999.94 665.94"><path d="M499.97,499.97l498.55,38.1h.02c.27-3.62,.51-7.24,.7-10.88,.2-3.62,.36-7.26,.47-10.9,.12-3.63,.2-7.26,.24-10.91l-499.97-5.41Z" fill="red"/><path d="M999.71,483.57c-.11-3.64-.27-7.27-.46-10.9-.19-3.64-.43-7.28-.7-10.89h-.03l-498.54,38.19,499.97-5.5c-.03-3.64-.11-7.28-.23-10.9Z" fill="red"/><path d="M997.57,548.94l-497.6-48.97,493.33,81.4h.08c.59-3.57,1.14-7.17,1.65-10.77,.51-3.59,.98-7.2,1.41-10.82,.43-3.61,.82-7.22,1.17-10.85h-.03Z" fill="red"/><path d="M996.44,440.07c-.43-3.61-.9-7.22-1.41-10.82-.51-3.61-1.05-7.2-1.64-10.79l-.1,.02-493.31,81.49,497.59-49.05h.05c-.35-3.63-.74-7.25-1.17-10.85Z" fill="red"/><path d="M991.4,592.11l-491.43-92.14,484.36,124.09,.15,.04c.89-3.52,1.75-7.05,2.57-10.6,.82-3.53,1.6-7.09,2.34-10.66,.75-3.55,1.45-7.12,2.12-10.71l-.1-.02Z" fill="red"/><path d="M989.39,397.01c-.75-3.57-1.53-7.12-2.34-10.66-.83-3.55-1.69-7.08-2.6-10.6l-.15,.04-484.33,124.18,491.42-92.24,.11-.02c-.66-3.58-1.36-7.16-2.1-10.7Z" fill="red"/><path d="M981.5,634.6l-481.53-134.63,471.7,165.83,.17,.06c1.21-3.43,2.37-6.87,3.5-10.34,1.13-3.45,2.22-6.93,3.27-10.41,1.05-3.48,2.07-6.97,3.03-10.48l-.15-.04Z" fill="red"/><path d="M978.6,354.74c-1.05-3.49-2.14-6.96-3.28-10.42-1.13-3.46-2.3-6.91-3.5-10.33l-.18,.06-471.67,165.92,481.51-134.71,.17-.05c-.98-3.5-1.99-7-3.05-10.47Z" fill="red"/><path d="M964.13,313.56c-1.35-3.37-2.75-6.74-4.18-10.08-1.42-3.35-2.89-6.68-4.39-9.99l-.18,.08-455.41,206.39,467.93-176.17,.19-.07c-1.28-3.41-2.61-6.8-3.96-10.17Z" fill="red"/><path d="M946.11,273.84c-1.63-3.25-3.32-6.48-5.05-9.69-1.72-3.21-3.46-6.4-5.26-9.57l-.15,.09-435.69,245.3,450.81-216.27,.17-.08c-1.57-3.29-3.18-6.54-4.83-9.78Z" fill="red"/><path d="M924.69,235.81c-1.93-3.09-3.88-6.16-5.88-9.2-1.99-3.04-4-6.06-6.07-9.06l-.11,.08L499.97,499.97l430.24-254.75,.14-.09c-1.86-3.13-3.74-6.24-5.66-9.32Z" fill="red"/><path d="M900.03,199.82c-2.18-2.9-4.4-5.79-6.65-8.65-2.25-2.86-4.52-5.7-6.84-8.5l-.1,.08L499.97,499.97,906.37,208.7l.12-.09c-2.12-2.95-4.27-5.89-6.46-8.79Z" fill="red"/><path d="M872.33,166.1c-2.42-2.71-4.88-5.39-7.37-8.04-2.48-2.66-4.99-5.28-7.54-7.88l-.09,.09L499.97,499.97,879.44,174.39l.09-.08c-2.36-2.77-4.76-5.5-7.2-8.21Z" fill="red"/><path d="M841.82,134.93c-2.65-2.5-5.34-4.96-8.05-7.38-2.7-2.44-5.44-4.84-8.2-7.2l-.08,.1L499.97,499.97,849.62,142.55l.08-.08c-2.59-2.55-5.23-5.07-7.88-7.55Z" fill="red"/><path d="M808.71,106.5c-2.86-2.25-5.74-4.46-8.65-6.64-2.91-2.18-5.84-4.34-8.8-6.45l-.08,.11L499.97,499.97,817.13,113.44l.08-.11c-2.82-2.31-5.65-4.59-8.51-6.83Z" fill="red"/><path d="M773.26,81.06c-3.04-1.98-6.11-3.94-9.2-5.86-3.09-1.92-6.2-3.82-9.33-5.66l-.09,.15-254.67,430.28L782.24,87.27l.09-.13c-3-2.06-6.03-4.09-9.07-6.08Z" fill="red"/><path d="M735.71,58.83c-3.2-1.72-6.42-3.4-9.68-5.04-3.24-1.65-6.5-3.26-9.78-4.83l-.08,.18-216.2,450.84L745.19,64.24l.09-.16c-3.17-1.79-6.36-3.55-9.57-5.25Z" fill="red"/><path d="M696.38,39.95c-3.34-1.43-6.7-2.82-10.09-4.18-3.38-1.35-6.76-2.66-10.18-3.95l-.06,.18-176.08,467.97L706.28,44.52l.08-.17c-3.3-1.51-6.64-2.97-9.98-4.4Z" fill="red"/><path d="M655.52,24.6c-3.45-1.13-6.93-2.22-10.41-3.27-3.48-1.05-6.97-2.07-10.48-3.03l-.04,.15-134.63,481.53L665.8,28.27l.06-.17c-3.43-1.21-6.87-2.37-10.34-3.5Z" fill="red"/><path d="M613.5,12.89c-3.53-.82-7.09-1.6-10.66-2.34-3.55-.75-7.12-1.45-10.71-2.12l-.02,.1-92.14,491.43L624.06,15.62l.04-.15c-3.52-.89-7.05-1.75-10.6-2.57Z" fill="red"/><path d="M570.6,4.92c-3.59-.51-7.2-.98-10.82-1.41-3.61-.43-7.22-.82-10.85-1.17v.03l-48.97,497.6L581.37,6.64v-.08c-3.57-.59-7.17-1.14-10.77-1.65Z" fill="red"/><path d="M527.18,.71c-3.62-.2-7.26-.36-10.9-.47-3.63-.12-7.26-.2-10.91-.24l-5.41,499.97L538.07,1.42v-.02c-3.62-.27-7.24-.51-10.88-.7Z" fill="red"/><path d="M494.47,0c-3.64,.03-7.28,.11-10.9,.23-3.64,.11-7.27,.27-10.9,.46-3.64,.19-7.28,.43-10.89,.7v.03l38.19,498.54L494.47,0Z" fill="red"/><path d="M450.92,2.38v-.05c-3.63,.35-7.25,.74-10.85,1.17-3.61,.43-7.22,.9-10.82,1.41-3.61,.51-7.2,1.05-10.79,1.64l.02,.1,81.49,493.31L450.92,2.38Z" fill="red"/><path d="M407.73,8.55l-.02-.11c-3.58,.66-7.16,1.36-10.7,2.1-3.57,.75-7.12,1.53-10.66,2.34-3.55,.83-7.08,1.69-10.6,2.6l.04,.15,124.18,484.33L407.73,8.55Z" fill="red"/><path d="M365.26,18.46l-.05-.17c-3.5,.98-7,1.99-10.47,3.05-3.49,1.05-6.96,2.14-10.42,3.28-3.46,1.13-6.91,2.3-10.33,3.5l.06,.18,165.92,471.67L365.26,18.46Z" fill="red"/><path d="M323.8,32.04l-.07-.19c-3.41,1.28-6.8,2.61-10.17,3.96-3.37,1.35-6.74,2.75-10.08,4.18-3.35,1.42-6.68,2.89-9.99,4.39l.08,.18,206.39,455.41L323.8,32.04Z" fill="red"/><path d="M283.7,49.16l-.08-.17c-3.29,1.57-6.54,3.18-9.78,4.83-3.25,1.63-6.48,3.32-9.69,5.05-3.21,1.72-6.4,3.46-9.57,5.26l.09,.15,245.3,435.69L283.7,49.16Z" fill="red"/><path d="M245.22,69.73l-.09-.14c-3.13,1.86-6.24,3.74-9.32,5.66-3.09,1.93-6.16,3.88-9.2,5.88-3.04,1.99-6.06,4-9.06,6.07l.08,.11L499.97,499.97,245.22,69.73Z" fill="red"/><path d="M208.7,93.58l-.09-.12c-2.95,2.12-5.89,4.27-8.79,6.46-2.9,2.18-5.79,4.4-8.65,6.65-2.86,2.25-5.7,4.52-8.5,6.84l.08,.1L499.97,499.97,208.7,93.58Z" fill="red"/><path d="M174.39,120.51l-.08-.09c-2.77,2.36-5.5,4.76-8.21,7.2-2.71,2.42-5.39,4.88-8.04,7.37-2.66,2.48-5.28,4.99-7.88,7.54l.09,.09L499.97,499.97,174.39,120.51Z" fill="red"/><path d="M18.46,634.68l-.17,.05c.98,3.5,1.99,7,3.05,10.47,1.05,3.49,2.14,6.96,3.28,10.42,1.13,3.46,2.3,6.91,3.5,10.33l.18-.06,471.67-165.92L18.46,634.68Z" fill="red"/><path d="M8.55,592.21l-.11,.02c.66,3.58,1.36,7.16,2.1,10.7,.75,3.57,1.53,7.12,2.34,10.66,.83,3.55,1.69,7.08,2.6,10.6l.15-.04,484.33-124.18L8.55,592.21Z" fill="red"/><path d="M2.38,549.02h-.05c.35,3.63,.74,7.25,1.17,10.85,.43,3.61,.9,7.22,1.41,10.82,.51,3.61,1.05,7.2,1.64,10.79l.1-.02,493.31-81.49L2.38,549.02Z" fill="red"/><path d="M0,505.47c.03,3.64,.11,7.28,.23,10.9,.11,3.64,.27,7.27,.46,10.9,.19,3.64,.43,7.28,.7,10.89h.03l498.54-38.19L0,505.47Z" fill="red"/><path d="M1.42,461.87h-.02c-.27,3.62-.51,7.24-.7,10.88-.2,3.62-.36,7.26-.47,10.9-.12,3.63-.2,7.26-.24,10.91l499.97,5.41L1.42,461.87Z" fill="red"/><path d="M6.64,418.57h-.08c-.59,3.57-1.14,7.17-1.65,10.77-.51,3.59-.98,7.2-1.41,10.82-.43,3.61-.82,7.22-1.17,10.85h.03l497.6,48.97L6.64,418.57Z" fill="red"/><path d="M15.62,375.88l-.15-.04c-.89,3.52-1.75,7.05-2.57,10.6-.82,3.53-1.6,7.09-2.34,10.66-.75,3.55-1.45,7.12-2.12,10.71l.1,.02,491.43,92.14L15.62,375.88Z" fill="red"/><path d="M28.27,334.14l-.17-.06c-1.21,3.43-2.37,6.87-3.5,10.34-1.13,3.45-2.22,6.93-3.27,10.41-1.05,3.48-2.07,6.97-3.03,10.48l.15,.04,481.53,134.63L28.27,334.14Z" fill="red"/><path d="M44.52,293.66l-.17-.08c-1.51,3.3-2.97,6.64-4.4,9.98-1.43,3.34-2.82,6.7-4.18,10.09-1.35,3.38-2.66,6.76-3.95,10.18l.18,.06,467.97,176.08L44.52,293.66Z" fill="red"/><path d="M64.24,254.75l-.16-.09c-1.79,3.17-3.55,6.36-5.25,9.57-1.72,3.2-3.4,6.42-5.05,9.68-1.65,3.24-3.26,6.5-4.83,9.78l.18,.08,450.84,216.2L64.24,254.75Z" fill="red"/><path d="M87.27,217.7l-.13-.09c-2.06,3-4.09,6.03-6.08,9.07-1.98,3.04-3.94,6.11-5.86,9.2-1.92,3.09-3.82,6.2-5.66,9.33l.15,.09,430.28,254.67L87.27,217.7Z" fill="red"/><path d="M113.44,182.81l-.11-.08c-2.31,2.82-4.59,5.65-6.83,8.51-2.25,2.86-4.46,5.74-6.64,8.65-2.18,2.91-4.34,5.84-6.45,8.8l.11,.08L499.97,499.97,113.44,182.81Z" fill="red"/><path d="M142.55,150.32l-.08-.08c-2.55,2.59-5.07,5.23-7.55,7.88-2.5,2.65-4.96,5.34-7.38,8.05-2.44,2.7-4.84,5.44-7.2,8.2l.1,.08L499.97,499.97,142.55,150.32Z" fill="red"/></svg>